<svg xmlns="http://www.w3.org/2000/svg" xmlns:xlink="http://www.w3.org/1999/xlink"><defs><symbol viewBox="-1 0 18 17" id="arrow"><path class="arrow-pl" d="M16.375 8.339 7.76 15.307l-.857-.99 7.387-5.975-7.383-5.914.852-.992z" /><path class="arrow-pl-fixed" d="M16.375 8.339 7.76 15.307l-.857-.99 7.387-5.975-7.383-5.914.852-.992z" /><path d="M0 .562v15.63L9.708 8.34 0 .562Zm1.333 2.74 6.292 5.04-6.292 5.09V3.303Z" /></symbol><symbol fill="none" viewBox="0 0 24 24" id="arrow-down"><path d="m6 9 6 6 6-6" stroke="currentColor" stroke-width="1.5" stroke-linecap="round" stroke-linejoin="round" /></symbol><symbol viewBox="0 0 24 24" id="error"><path d="M12 14a1.25 1.25 0 1 0 1.25 1.25A1.25 1.25 0 0 0 12 14Zm0-1.5a1 1 0 0 0 1-1v-3a1 1 0 0 0-2 0v3a1 1 0 0 0 1 1ZM12 2a10 10 0 1 0 10 10A10.011 10.011 0 0 0 12 2Zm0 18a8 8 0 1 1 8-8 8.01 8.01 0 0 1-8 8Z" /></symbol><symbol viewBox="0 0 499.1 499.1" id="login"><path d="M0 249.6c0 9.5 7.7 17.2 17.2 17.2h327.6l-63.9 63.8c-6.7 6.7-6.7 17.6 0 24.3 3.3 3.3 7.7 5 12.1 5s8.8-1.7 12.1-5l93.1-93.1c6.7-6.7 6.7-17.6 0-24.3l-93.1-93.1c-6.7-6.7-17.6-6.7-24.3 0-6.7 6.7-6.7 17.6 0 24.3l63.8 63.8H17.2c-9.5 0-17.2 7.6-17.2 17.1z" /><path d="M396.4 494.2c56.7 0 102.7-46.1 102.7-102.8V107.7C499.1 51 453 4.9 396.4 4.9H112.7C56 4.9 10 51 10 107.7V166c0 9.5 7.7 17.1 17.1 17.1 9.5 0 17.2-7.7 17.2-17.1v-58.3c0-37.7 30.7-68.5 68.4-68.5h283.7c37.7 0 68.4 30.7 68.4 68.5v283.7c0 37.7-30.7 68.5-68.4 68.5H112.7c-37.7 0-68.4-30.7-68.4-68.5v-57.6c0-9.5-7.7-17.2-17.2-17.2S10 324.3 10 333.8v57.6c0 56.7 46.1 102.8 102.7 102.8h283.7z" /></symbol><symbol viewBox="0 0 24 24" id="success"><path d="m14.72 8.79-4.29 4.3-1.65-1.65a1 1 0 1 0-1.41 1.41l2.35 2.36a1 1 0 0 0 .71.29 1 1 0 0 0 .7-.29l5-5a1 1 0 0 0 0-1.42 1 1 0 0 0-1.41 0ZM12 2a10 10 0 1 0 10 10A10 10 0 0 0 12 2Zm0 18a8 8 0 1 1 8-8 8 8 0 0 1-8 8Z" /></symbol><symbol viewBox="0 0 98 137" id="trash"><path d="M75.6 44.8v73c0 3.4-2.8 6.2-6.2 6.2H21.3c-3.4 0-6.2-2.8-6.2-6.2v-73h60.5zm-15.7 8.1v62.8h3.6V52.9h-3.6zm-16.3 0v62.8h3.6V52.9h-3.6zm-16.3 0v62.8h3.6V52.9h-3.6zm4-25v-5.2c0-3.3 2.6-5.9 5.9-5.9h16.4c3.3 0 5.9 2.6 5.9 5.9v5.2h18.1c3.4 0 6.2 2.8 6.2 6.2v4.3H7V34c0-3.4 2.8-6.2 6.2-6.2h18.1v.1zm5.9-7.1c-1 0-1.8.8-1.8 1.8v5.2h20.1v-5.2c0-1-.8-1.8-1.8-1.8H37.2z" /><path class="st2" d="M0 0h98v137H0z" /></symbol></defs></svg>